<?xml version="1.0" encoding="iso-8859-1"?>
<!-- Generator: Adobe Illustrator 19.0.0, SVG Export Plug-In . SVG Version: 6.00 Build 0)  -->
<svg version="1.1" id="Layer_1" xmlns="http://www.w3.org/2000/svg" xmlns:xlink="http://www.w3.org/1999/xlink" x="0px" y="0px"
	 viewBox="0 0 512 512" style="enable-background:new 0 0 512 512;" xml:space="preserve">
<g>
	<g>
		<path d="M256,261.224c-0.495,0-0.984,0.027-1.476,0.038c-15.161,0.771-27.258,13.349-27.258,28.697
			c0,15.844,12.89,28.735,28.735,28.735c32.234,0,58.611,25.516,60.014,57.411c8.264-11.846,13.129-26.23,13.129-41.737
			C329.143,294.036,296.331,261.224,256,261.224z"/>
	</g>
</g>
<g>
	<g>
		<path d="M256,350.041c-32.234,0-58.611-25.516-60.014-57.411c-8.264,11.846-13.129,26.23-13.129,41.737
			c0,40.331,32.812,73.143,73.143,73.143c0.495,0,0.984-0.027,1.476-0.038c15.161-0.771,27.258-13.349,27.258-28.697
			C284.735,362.932,271.845,350.041,256,350.041z"/>
	</g>
</g>
<g>
	<g>
		<path d="M376.163,158.58v-33.192H135.837v33.192c-29.916,7.097-52.245,34.018-52.245,66.073V512h344.816V224.653
			C428.408,192.599,406.08,165.677,376.163,158.58z M256,438.857c-57.616,0-104.49-46.873-104.49-104.49
			s46.874-104.49,104.49-104.49s104.49,46.873,104.49,104.49S313.616,438.857,256,438.857z"/>
	</g>
</g>
<g>
	<g>
		<polygon points="352.962,62.694 360.49,18.03 360.49,0 151.51,0 151.51,18.03 159.038,62.694 114.939,62.694 114.939,94.041 
			397.061,94.041 397.061,62.694 		"/>
	</g>
</g>
<g>
</g>
<g>
</g>
<g>
</g>
<g>
</g>
<g>
</g>
<g>
</g>
<g>
</g>
<g>
</g>
<g>
</g>
<g>
</g>
<g>
</g>
<g>
</g>
<g>
</g>
<g>
</g>
<g>
</g>
</svg>
